<?xml version="1.0" encoding="UTF-8"?>
<svg version="1.1" xmlns="http://www.w3.org/2000/svg" width="512" height="512">
<path d="M0 0 C1.01545898 0.19867676 2.03091797 0.39735352 3.07714844 0.60205078 C52.9758035 10.58327711 96.53871388 34.88580573 133 70 C133.7940625 70.7528125 134.588125 71.505625 135.40625 72.28125 C140.75597303 77.46114055 145.38660506 83.16405541 150 89 C151.19109375 90.48306641 151.19109375 90.48306641 152.40625 91.99609375 C175.32205725 121.03970389 191.22147176 154.85685587 199.6875 190.8125 C199.97306763 191.99936401 199.97306763 191.99936401 200.2644043 193.21020508 C204.22851721 210.89052902 205.555362 228.61292655 205.4375 246.6875 C205.43293793 248.18546112 205.43293793 248.18546112 205.42828369 249.71368408 C205.35621635 265.78341917 204.43972751 281.25213186 201 297 C200.78037598 298.02625488 200.56075195 299.05250977 200.33447266 300.10986328 C191.83138831 338.85817193 174.61772522 375.56726438 149 406 C148.57138672 406.51739746 148.14277344 407.03479492 147.70117188 407.56787109 C137.18164284 420.2564129 126.03816903 431.86528878 113 442 C111.52660156 443.18142578 111.52660156 443.18142578 110.0234375 444.38671875 C70.29759115 476.0035908 18.37047678 496.93437939 -32.79296875 497.203125 C-33.69337387 497.21018463 -34.59377899 497.21724426 -35.52146912 497.22451782 C-72.98691069 497.45161655 -72.98691069 497.45161655 -90 494 C-91.01545898 493.80132324 -92.03091797 493.60264648 -93.07714844 493.39794922 C-142.9758035 483.41672289 -186.53871388 459.11419427 -223 424 C-223.7940625 423.2471875 -224.588125 422.494375 -225.40625 421.71875 C-230.75597303 416.53885945 -235.38660506 410.83594459 -240 405 C-240.7940625 404.01128906 -241.588125 403.02257812 -242.40625 402.00390625 C-266.9776499 370.86198961 -283.32468106 334.48759715 -291.25 295.6875 C-291.47671387 294.57942993 -291.47671387 294.57942993 -291.70800781 293.44897461 C-292.18439803 290.97158418 -292.60252786 288.49133778 -293 286 C-293.17805176 284.88423584 -293.35610352 283.76847168 -293.53955078 282.61889648 C-295.19998488 270.98027732 -295.3987437 259.43103747 -295.375 247.6875 C-295.37445618 246.6738739 -295.37391235 245.6602478 -295.37335205 244.61590576 C-295.33347417 228.41878779 -294.46747801 212.87491635 -291 197 C-290.78037598 195.97374512 -290.56075195 194.94749023 -290.33447266 193.89013672 C-279.82149525 145.98280374 -255.85138923 104.15003587 -222 69 C-221.2471875 68.2059375 -220.494375 67.411875 -219.71875 66.59375 C-214.53885945 61.24402697 -208.83594459 56.61339494 -203 52 C-202.01128906 51.2059375 -201.02257812 50.411875 -200.00390625 49.59375 C-167.66655102 24.07913264 -130.33332447 7.86607287 -90 0 C-89.17274414 -0.16661133 -88.34548828 -0.33322266 -87.49316406 -0.50488281 C-59.91781494 -5.80488028 -27.50199116 -5.57960557 0 0 Z " fill="#7E46AA" transform="translate(301,9)"/>
<path d="M0 0 C1.42200948 1.19878706 2.81565324 2.4316187 4.1875 3.6875 C5.15171875 4.56019531 6.1159375 5.43289062 7.109375 6.33203125 C21.06706923 19.38366525 32.5780408 38.30667671 33.30322266 57.79785156 C33.43452918 65.43071055 33.34139082 73.05565547 33.1875 80.6875 C40.1175 80.6875 47.0475 80.6875 54.1875 80.6875 C54.0695906 74.42036764 54.0695906 74.42036764 53.91723633 68.15405273 C53.85588707 61.64773271 54.38726844 56.56082997 59.1328125 51.69140625 C63.74936095 48.63852743 67.37022857 46.79707292 72.98828125 47.23828125 C78.63576541 48.39185261 82.67619431 50.58571264 86.125 55.25 C88.48242017 58.83807341 89.31388223 61.8565484 89.28515625 66.13671875 C89.28032227 67.40805664 89.28032227 67.40805664 89.27539062 68.70507812 C89.26701172 69.58615234 89.25863281 70.46722656 89.25 71.375 C89.24548828 72.26767578 89.24097656 73.16035156 89.23632812 74.08007812 C89.22454983 76.28261987 89.20810164 78.48502599 89.1875 80.6875 C90.23808594 80.61789063 91.28867187 80.54828125 92.37109375 80.4765625 C100.11947604 80.11664479 106.16130983 79.86053732 112.484375 84.96484375 C117.20006062 89.73460833 119.30681141 94.20083631 119.32794189 100.96337891 C119.33365204 102.05700745 119.33936218 103.15063599 119.34524536 104.27740479 C119.34636322 105.47750183 119.34748108 106.67759888 119.34863281 107.9140625 C119.35359772 109.17764587 119.35856262 110.44122925 119.36367798 111.74310303 C119.37679135 115.20995787 119.38324439 118.67679336 119.38768864 122.14366913 C119.39061996 124.30877442 119.39472479 126.47387442 119.39919281 128.63897705 C119.41286246 135.4108827 119.42253277 142.18277626 119.4263947 148.95469475 C119.4308799 156.77664071 119.44845125 164.59841232 119.4773953 172.42030525 C119.4989868 178.46452762 119.50909756 184.50870082 119.51043582 190.55296135 C119.51148531 194.16422097 119.51742382 197.77531656 119.53525543 201.38653564 C119.55474413 205.41144466 119.55045735 209.43598663 119.54394531 213.4609375 C119.5531601 214.66103455 119.56237488 215.86113159 119.5718689 217.09759521 C119.56351517 218.73803802 119.56351517 218.73803802 119.55499268 220.41162109 C119.55719252 221.8396254 119.55719252 221.8396254 119.5594368 223.29647827 C119.1875 225.6875 119.1875 225.6875 117.79734421 227.53286743 C116.1875 228.6875 116.1875 228.6875 114.0625 228.4375 C112.1875 227.6875 112.1875 227.6875 111.1875 226.6875 C111.10001793 224.76082493 111.08052666 222.83098139 111.08984375 220.90234375 C111.09306641 219.73251953 111.09628906 218.56269531 111.09960938 217.35742188 C111.10798828 216.12572266 111.11636719 214.89402344 111.125 213.625 C111.12951172 212.38943359 111.13402344 211.15386719 111.13867188 209.88085938 C111.15050392 206.81635883 111.16698827 203.75195279 111.1875 200.6875 C110.5275 200.6875 109.8675 200.6875 109.1875 200.6875 C108.8575 201.6775 108.5275 202.6675 108.1875 203.6875 C106.18359375 205.1875 106.18359375 205.1875 103.625 206.6875 C102.79871094 207.1825 101.97242188 207.6775 101.12109375 208.1875 C90.1961638 213.77361598 85.88214053 212.6875 72.1875 212.6875 C72.1875 242.7175 72.1875 272.7475 72.1875 303.6875 C90.09177535 303.4111775 90.09177535 303.4111775 103.625 294.5 C110.0826787 287.23342627 110.63906261 278.50356574 110.8125 269.1875 C110.8632437 267.2186444 110.91771758 265.24988012 110.9765625 263.28125 C110.99412598 262.42208984 111.01168945 261.56292969 111.02978516 260.67773438 C111.1875 258.6875 111.1875 258.6875 112.1875 257.6875 C114.625 257.5 114.625 257.5 117.1875 257.6875 C120.60432138 261.10432138 119.61628366 265.86218338 119.625 270.5 C119.60105831 283.43050869 117.65626594 293.22830839 108.296875 302.81640625 C99.43493707 310.67727341 91.04550969 311.9876963 79.51065063 311.95492554 C78.33904023 311.95945665 77.16742982 311.96398776 75.96031606 311.96865618 C72.72121248 311.97910303 69.48224904 311.98063003 66.24313402 311.97826743 C62.74474032 311.97785835 59.24637941 311.98890701 55.7480011 311.99838257 C48.89921005 312.01497302 42.05045343 312.0204912 35.20164396 312.02160732 C29.63361435 312.02255861 24.06559607 312.02667291 18.49757004 312.03300858 C2.70264164 312.05061469 -13.09225961 312.05984829 -28.8871979 312.05834763 C-29.73814329 312.05826772 -30.58908869 312.0581878 -31.46582031 312.05810547 C-32.74380101 312.05798283 -32.74380101 312.05798283 -34.04759951 312.05785771 C-47.85685503 312.05704471 -61.66600151 312.07618748 -75.47522549 312.1043822 C-89.66280403 312.13312035 -103.85032939 312.14692202 -118.03793776 312.14519465 C-125.99989087 312.14453113 -133.96172961 312.1500069 -141.92365646 312.17155075 C-148.7019251 312.18977469 -155.48002752 312.19409989 -162.25831006 312.1805319 C-165.71469488 312.17400864 -169.1707609 312.1738614 -172.62711525 312.1912384 C-176.37892263 312.20666491 -180.12989408 312.19739837 -183.88168335 312.18197632 C-184.9673951 312.19226344 -186.05310685 312.20255057 -187.17171896 312.21314943 C-197.40155125 312.12029798 -205.26515209 308.54872537 -212.8125 301.6875 C-223.23852889 290.94844945 -223.40079512 277.41094103 -223.33007812 263.37792969 C-223.33550815 261.55664513 -223.34263572 259.73536497 -223.35131836 257.91409302 C-223.36944483 253.00108897 -223.36252997 248.08842352 -223.34980202 243.17541409 C-223.3396249 238.01954216 -223.34908015 232.86369786 -223.35534668 227.70782471 C-223.3626068 219.05646595 -223.35307567 210.40524417 -223.33398438 201.75390625 C-223.31219127 191.76306485 -223.31929132 181.77254969 -223.34129 171.78171611 C-223.35945781 163.1852136 -223.36199638 154.58880911 -223.35153532 145.9922936 C-223.34531154 140.86580764 -223.34443462 135.73947496 -223.35768127 130.61299896 C-223.36926023 125.79634735 -223.36117669 120.98011575 -223.33810425 116.16350937 C-223.33282927 114.3995038 -223.33431014 112.63546269 -223.34315491 110.87147141 C-223.42694647 92.45888975 -223.42694647 92.45888975 -217.36530304 86.191082 C-211.85657282 81.30041903 -207.79813374 80.39631053 -200.5625 80.5625 C-199.81742188 80.57152344 -199.07234375 80.58054687 -198.3046875 80.58984375 C-196.47381941 80.61331642 -194.64311762 80.64918475 -192.8125 80.6875 C-192.85890625 79.40875 -192.9053125 78.13 -192.953125 76.8125 C-192.99067027 75.10419021 -193.02706745 73.39585492 -193.0625 71.6875 C-193.09601563 70.84832031 -193.12953125 70.00914062 -193.1640625 69.14453125 C-193.25722759 63.13538301 -192.2241588 58.69696735 -188.8125 53.6875 C-183.95509394 49.07296424 -179.8226116 47.20722541 -173.19140625 47.37109375 C-167.9076693 48.07385679 -164.05192091 50.41629907 -160.375 54.1875 C-158.02765473 57.94325243 -157.6867665 61.0730733 -157.71484375 65.453125 C-157.71734131 66.25524414 -157.71983887 67.05736328 -157.72241211 67.88378906 C-157.73151611 68.89151367 -157.74062012 69.89923828 -157.75 70.9375 C-157.770625 74.155 -157.79125 77.3725 -157.8125 80.6875 C-150.8825 80.6875 -143.9525 80.6875 -136.8125 80.6875 C-136.85890625 78.99625 -136.9053125 77.305 -136.953125 75.5625 C-137.47114645 48.87750155 -131.99346025 28.48229549 -113.17407227 8.64892578 C-107.27821821 2.62151774 -101.26401848 -2.27405257 -93.8125 -6.3125 C-92.83410156 -6.85519531 -91.85570312 -7.39789063 -90.84765625 -7.95703125 C-61.99255568 -23.22015394 -25.90639094 -19.0446982 0 0 Z " fill="#FAF8FC" transform="translate(307.8125,108.3125)"/>
<path d="M0 0 C1.61572476 -0.00967334 1.61572476 -0.00967334 3.26409042 -0.0195421 C4.44675841 -0.01644489 5.6294264 -0.01334769 6.84793282 -0.01015663 C8.10485125 -0.01468774 9.36176968 -0.01921886 10.65677655 -0.02388728 C14.14786655 -0.03613631 17.63886086 -0.03585459 21.12996745 -0.03349853 C24.89420666 -0.03309084 28.65841498 -0.04412486 32.42263985 -0.05361366 C39.798226 -0.07023488 47.17378019 -0.07572371 54.54938351 -0.07683842 C60.54371176 -0.07778833 66.53802945 -0.08189576 72.53235435 -0.08823967 C89.52229189 -0.10585487 106.51220415 -0.11507806 123.50215088 -0.11357872 C124.41830756 -0.11349881 125.33446425 -0.1134189 126.27838326 -0.11333656 C127.65429348 -0.11321392 127.65429348 -0.11321392 129.05799986 -0.1130888 C143.92674654 -0.11227574 158.79539195 -0.13141765 173.66410933 -0.1596133 C188.92621966 -0.18832689 204.18828057 -0.20215444 219.45041859 -0.20042574 C228.02097418 -0.19976133 236.5914236 -0.20527606 245.16195488 -0.22678185 C252.45860328 -0.24497358 259.7550974 -0.24935755 267.05175863 -0.235763 C270.7750777 -0.22922321 274.4981006 -0.22915218 278.22139168 -0.2464695 C282.25679863 -0.26504558 286.29151688 -0.25267231 290.32693672 -0.23720741 C291.50514327 -0.24749454 292.68334982 -0.25778167 293.89725959 -0.26838052 C300.12105377 -0.21549273 304.0410573 -0.03004765 308.71441841 4.25726891 C311.27931881 8.1046195 311.00988795 11.27112843 311.00494576 15.7326107 C311.01166298 16.59801979 311.0183802 17.46342888 311.02530098 18.35506248 C311.04433086 21.22226233 311.04820823 24.08922854 311.05035591 26.95648766 C311.05678232 28.95085814 311.06351056 30.94522768 311.07052803 32.93959618 C311.08251465 37.12518052 311.08620763 41.31068227 311.08502388 45.49628258 C311.08482106 50.84841676 311.11207892 56.20001776 311.1465683 61.55202579 C311.16886005 65.67427034 311.17286066 69.79638727 311.17180443 73.91868591 C311.17415866 75.89097296 311.18297212 77.86326361 311.19846916 79.83549118 C311.21816715 82.60235224 311.21227535 85.36807321 311.20025826 88.13495445 C311.21149727 88.94304558 311.22273628 89.7511367 311.23431587 90.58371544 C311.16138427 97.22517508 309.13304486 102.262266 304.96051216 107.42914391 C293.42124179 117.49796729 280.78188224 116.8021993 266.29644966 116.64789391 C264.22709388 116.64042202 262.15773097 116.63473357 260.08836555 116.63074303 C254.67465438 116.61556136 249.26138096 116.57634466 243.84784126 116.53192711 C238.31058865 116.49081242 232.77326445 116.47269758 227.23590279 116.45258141 C216.39521698 116.40984257 205.55485427 116.34168278 194.71441841 116.25726891 C194.67574654 114.53830406 194.67574654 114.53830406 194.63629341 112.78461266 C194.57997498 111.2546286 194.52262851 109.72468215 194.46441841 108.19476891 C194.45023872 107.44260094 194.43605904 106.69043297 194.42144966 105.91547203 C194.17811749 100.29449893 192.9289899 96.89727994 189.71441841 92.25726891 C184.31831455 87.98535335 180.41890693 87.1390819 173.67999458 87.09613609 C172.46160393 87.08652855 171.24321327 87.07692101 169.98790169 87.06702232 C168.67433189 87.06277245 167.3607621 87.05852257 166.00738716 87.05414391 C164.63981819 87.04838668 163.27224922 87.04262902 161.90468025 87.03687096 C159.03909112 87.02637928 156.17352989 87.02052477 153.30792427 87.01703453 C149.64961207 87.01155634 145.99167328 86.98753547 142.33347797 86.95906258 C139.50833777 86.94036803 136.68328626 86.93522697 133.85808945 86.93369865 C131.85794061 86.92922894 129.85783939 86.91061613 127.85777473 86.89172935 C119.6994724 86.91166984 114.23576454 87.20543559 107.90191841 92.69476891 C103.64854243 97.67729506 103.34276395 101.64196217 103.08941841 108.00726891 C103.05074654 108.80004234 103.01207466 109.59281578 102.97223091 110.40961266 C102.87831041 112.35846307 102.79529019 114.30783341 102.71441841 116.25726891 C90.37038157 116.3733704 78.02647569 116.46208981 65.68200302 116.51632977 C59.94928444 116.54236878 54.21694079 116.57766312 48.48443794 116.63446617 C42.94714256 116.68898849 37.4102067 116.71873225 31.8726635 116.73165512 C29.76522733 116.74085871 27.65780974 116.75883108 25.55052757 116.78591919 C2.87634442 117.06566368 2.87634442 117.06566368 -5.39700127 109.26698875 C-11.76812847 102.6912704 -13.73990203 96.29621895 -13.68963432 87.372015 C-13.69649757 86.5109565 -13.70336082 85.64989799 -13.71043205 84.76274681 C-13.72863621 81.93522923 -13.72487306 79.10826963 -13.71917534 76.28070641 C-13.72373892 74.30728539 -13.72904502 72.33386596 -13.73505974 70.36044884 C-13.7439773 66.23321621 -13.7415816 62.10617725 -13.73162651 57.97894859 C-13.72011527 52.69162059 -13.74038827 47.40495831 -13.76954365 42.11771774 C-13.78788826 38.04619676 -13.78761705 33.97483601 -13.78190613 29.90328407 C-13.78175283 27.95364635 -13.78780455 26.00399783 -13.8001976 24.05439949 C-13.8150798 21.33041811 -13.80445267 18.60767638 -13.78729057 15.88373375 C-13.79695854 15.08049171 -13.80662651 14.27724968 -13.81658745 13.44966698 C-13.76812918 9.77559701 -13.4365836 7.50429584 -11.50422478 4.34311485 C-7.80336972 0.86377507 -5.05091339 0.00764452 0 0 Z " fill="#7C46A9" transform="translate(107.28558158874512,196.74273109436035)"/>
<path d="M0 0 C10.23 0 20.46 0 31 0 C31.495 6.93 31.495 6.93 32 14 C34.88759505 20.87927055 37.63142053 24.22602698 44 28 C47.20029722 29.06676574 49.54007413 29.14606198 52.9050293 29.17700195 C54.72788704 29.19625481 54.72788704 29.19625481 56.58757019 29.21589661 C58.56096123 29.22697701 58.56096123 29.22697701 60.57421875 29.23828125 C61.58114242 29.24439454 61.58114242 29.24439454 62.60840797 29.25063133 C66.16430984 29.27147792 69.72017333 29.28578342 73.27612305 29.29516602 C76.93335729 29.30620344 80.58997856 29.34057537 84.24699688 29.38033772 C87.07217978 29.40659885 89.89721901 29.41486637 92.7225132 29.41844749 C94.7209963 29.4256348 96.71938082 29.45203604 98.71769714 29.47883606 C105.96251952 29.46161816 110.88421134 29.00433634 117 25 C119.38388916 22.56391207 119.38388916 22.56391207 121 20 C121.99 18.515 121.99 18.515 123 17 C123.45138911 15.07552109 123.45138911 15.07552109 123.6328125 12.98828125 C123.70902832 12.30548096 123.78524414 11.62268066 123.86376953 10.91918945 C123.94997559 10.05898193 124.03618164 9.19877441 124.125 8.3125 C124.41375 5.569375 124.7025 2.82625 125 0 C135.23 0 145.46 0 156 0 C156 29.7 156 59.4 156 90 C104.52 90 53.04 90 0 90 C0 60.3 0 30.6 0 0 Z " fill="#4749A6" transform="translate(178,322)"/>
<path d="M0 0 C14.07944186 11.62847519 24.18857841 29.25917537 26.83203125 47.35546875 C27.05282136 51.54875589 27.022296 55.72052103 26.95703125 59.91796875 C26.91578125 63.69234375 26.87453125 67.46671875 26.83203125 71.35546875 C16.60203125 71.35546875 6.37203125 71.35546875 -4.16796875 71.35546875 C-4.22984375 67.80796875 -4.29171875 64.26046875 -4.35546875 60.60546875 C-4.87724121 45.34041674 -9.23308883 34.88846607 -20.29296875 24.16796875 C-31.44155841 14.53619401 -44.58754538 13.53942673 -58.62207031 14.12890625 C-70.37871647 15.17514404 -79.92033288 23.24120689 -87.33984375 31.84375 C-91.99239467 38.23603684 -95.17864565 45.7743999 -95.484375 53.6796875 C-95.54153687 55.06933716 -95.54153687 55.06933716 -95.59985352 56.48706055 C-95.66450806 58.24723511 -95.66450806 58.24723511 -95.73046875 60.04296875 C-95.87484375 63.77609375 -96.01921875 67.50921875 -96.16796875 71.35546875 C-106.39796875 71.35546875 -116.62796875 71.35546875 -127.16796875 71.35546875 C-127.74491703 45.82550724 -124.13937358 24.74049731 -106.16796875 5.35546875 C-96.32583932 -4.45635648 -84.47972682 -11.69074042 -71.16796875 -15.64453125 C-70.42804688 -15.87011719 -69.688125 -16.09570312 -68.92578125 -16.328125 C-44.4776565 -22.46130508 -19.57539179 -14.84908098 0 0 Z " fill="#AC44AD" transform="translate(306.16796875,117.64453125)"/>
<path d="M0 0 C1.16155609 -0.00953201 2.32311218 -0.01906403 3.51986694 -0.02888489 C5.39649521 -0.02751778 5.39649521 -0.02751778 7.31103516 -0.02612305 C9.24555038 -0.03255074 9.24555038 -0.03255074 11.21914673 -0.03910828 C13.94773471 -0.0465619 16.67619329 -0.04628592 19.40478516 -0.04101562 C22.89060488 -0.03522809 26.37589203 -0.05213805 29.86162376 -0.0753603 C33.1989493 -0.09369338 36.5361596 -0.08991115 39.87353516 -0.08862305 C41.1205722 -0.09783279 42.36760925 -0.10704254 43.6524353 -0.11653137 C50.65433268 -0.07918671 55.67178267 0.07067281 61.07519531 4.94287109 C62.78404427 8.40809751 62.65323558 11.80265383 62.62353516 15.58325195 C62.62640533 16.38698746 62.62927551 17.19072296 62.63223267 18.01881409 C62.63427079 19.71583766 62.62875851 21.41288487 62.61621094 23.10986328 C62.60017394 25.69983821 62.61605651 28.28824776 62.63525391 30.87817383 C62.63327102 32.52986997 62.6294264 34.18156513 62.62353516 35.83325195 C62.62960785 36.60422714 62.63568054 37.37520233 62.64193726 38.16954041 C62.5827153 42.72543695 62.09062504 45.68686868 59.22509766 49.2746582 C55.93056097 52.33886563 53.62065216 52.65974304 49.17480469 52.69458008 C47.95318634 52.71049194 46.73156799 52.72640381 45.47293091 52.74279785 C43.49787064 52.74309998 43.49787064 52.74309998 41.48291016 52.7434082 C40.11294239 52.750513 38.7429776 52.75821247 37.37301636 52.76647949 C34.50315073 52.77991648 31.63356013 52.78149718 28.76367188 52.77563477 C25.0959289 52.7697446 21.42951242 52.80030252 17.76202583 52.84075165 C14.9325761 52.86667595 12.10344357 52.8695018 9.27389145 52.86585999 C7.26757281 52.86836493 5.26132119 52.89303359 3.25515747 52.91809082 C-6.89489113 52.84117192 -6.89489113 52.84117192 -10.58789062 49.92504883 C-14.1992691 45.54849996 -13.96166272 41.49107745 -14.01318359 36.0637207 C-14.02125534 35.25857025 -14.02932709 34.4534198 -14.03764343 33.62387085 C-14.05146535 31.92089989 -14.06219596 30.21790144 -14.07006836 28.51489258 C-14.0872937 25.91605026 -14.13119622 23.31847651 -14.17529297 20.7199707 C-14.18541948 19.06373004 -14.19393572 17.40747858 -14.20068359 15.7512207 C-14.21819168 14.97710846 -14.23569977 14.20299622 -14.2537384 13.40542603 C-14.23908507 9.74552363 -13.92366459 7.51788663 -11.99829102 4.36987305 C-8.13271787 0.72714232 -5.27860719 0.02381691 0 0 Z " fill="#6048A8" transform="translate(231.77490234375,290.725341796875)"/>
<path d="M0 0 C0.54527344 0.38671875 1.09054688 0.7734375 1.65234375 1.171875 C2.78349609 1.95304687 2.78349609 1.95304687 3.9375 2.75 C4.66839844 3.26046875 5.39929688 3.7709375 6.15234375 4.296875 C17.96056086 11.3591283 22.73528258 10.23676413 38 11 C38 41.03 38 71.06 38 102 C15.42279412 102 15.42279412 102 7.6953125 94.875 C1.47098163 88.31840947 -0.31419961 82.82312538 -0.22705078 73.79150391 C-0.22734283 72.99083496 -0.22763489 72.19016602 -0.22793579 71.36523438 C-0.22654955 68.73556439 -0.21102179 66.1061826 -0.1953125 63.4765625 C-0.19157986 61.64667923 -0.18873407 59.81679395 -0.18673706 57.98690796 C-0.17912039 53.18319123 -0.15948882 48.37959646 -0.1373291 43.57592773 C-0.11682827 38.66912485 -0.10772629 33.76230216 -0.09765625 28.85546875 C-0.07624104 19.23692574 -0.04212888 9.61847303 0 0 Z " fill="#4C49A7" transform="translate(94,310)"/>
<path d="M0 0 C8.33909744 5.58592214 12.28536493 13.48623358 15.734375 22.68359375 C15.734375 29.61359375 15.734375 36.54359375 15.734375 43.68359375 C-9.345625 43.68359375 -34.425625 43.68359375 -60.265625 43.68359375 C-60.265625 15.40343015 -60.265625 15.40343015 -49.265625 3.68359375 C-34.92898251 -9.69925964 -16.33621499 -9.49190422 0 0 Z " fill="#A145AC" transform="translate(278.265625,145.31640625)"/>
<path d="M0 0 C9.57 0 19.14 0 29 0 C29 30.03 29 60.06 29 91 C19.43 91 9.86 91 0 91 C0 60.97 0 30.94 0 0 Z " fill="#4D4CA8" transform="translate(343,321)"/>
<path d="M0 0 C9.57 0 19.14 0 29 0 C29 30.03 29 60.06 29 91 C19.43 91 9.86 91 0 91 C0 60.97 0 30.94 0 0 Z " fill="#4D4CA8" transform="translate(140,321)"/>
<path d="M0 0 C4.01701003 0.15450039 6.41923437 0.5846899 9.71484375 2.94140625 C12.93045871 7.24538319 12.56532267 10.59657379 12.3125 15.8125 C12.28994141 16.69615234 12.26738281 17.57980469 12.24414062 18.49023438 C12.18547428 20.6608891 12.09579979 22.8306669 12 25 C6.06 25 0.12 25 -6 25 C-6.13530844 21.93601549 -6.2342407 18.87802874 -6.3125 15.8125 C-6.35439453 14.94818359 -6.39628906 14.08386719 -6.43945312 13.19335938 C-6.52808695 8.56667384 -6.54142413 6.67226112 -3.54296875 2.94921875 C-2.70378906 2.30597656 -1.86460937 1.66273438 -1 1 C-0.67 0.67 -0.34 0.34 0 0 Z " fill="#9D47AD" transform="translate(130,164)"/>
<path d="M0 0 C0.639375 -0.01289063 1.27875 -0.02578125 1.9375 -0.0390625 C5.4201594 1.08224829 6.83487678 2.6922083 9 5.625 C9.59715655 8.92148046 9.47420458 12.10141008 9.3125 15.4375 C9.28994141 16.32115234 9.26738281 17.20480469 9.24414062 18.11523438 C9.18547428 20.2858891 9.09579979 22.4556669 9 24.625 C3.06 24.625 -2.88 24.625 -9 24.625 C-9.13530844 21.56101549 -9.2342407 18.50302874 -9.3125 15.4375 C-9.35439453 14.57318359 -9.39628906 13.70886719 -9.43945312 12.81835938 C-9.52576201 8.31303575 -9.48103103 6.27658592 -6.73046875 2.55078125 C-3.0273062 -0.0610344 -3.0273062 -0.0610344 0 0 Z " fill="#9D46AC" transform="translate(379,164.375)"/>
</svg>
